<?xml version="1.0" encoding="utf-8"?>
<!-- Generator: Adobe Illustrator 28.0.0, SVG Export Plug-In . SVG Version: 6.00 Build 0)  -->
<svg version="1.1" id="Layer_1" xmlns="http://www.w3.org/2000/svg" xmlns:xlink="http://www.w3.org/1999/xlink" x="0px" y="0px"
	 viewBox="0 0 300 500" style="enable-background:new 0 0 300 500;" xml:space="preserve">
<style type="text/css">
	.st0{display:none;}
	.st1{display:inline;}
	.st2{display:inline;fill:#D6D6D6;}
	.st3{font-family:'ArialNarrow';}
	.st4{font-size:12.5064px;}
	.st5{fill:#A56C43;stroke:#000000;stroke-width:5.6693;stroke-miterlimit:10;}
	.st6{fill:#BA8D6E;}
	.st7{fill:none;stroke:#000000;stroke-width:2.8346;stroke-miterlimit:10;}
	.st8{display:none;fill:#999999;enable-background:new    ;}
	.st9{font-size:10px;}
	.st10{display:none;fill:none;stroke:#000000;stroke-width:2.8346;stroke-miterlimit:10;}
	.st11{fill:#BABABA;}
</style>
<g class="st0">
	<path class="st1" d="M296.4,450c-0.4-1.5-9.1-37.9-23.6-63.7l0,0c-13.3-24.2-20.5-77.1-28.1-109.3c-7.6-32.1-40.7-126.3-42-129.7
		c0,0-23.2-83.4-23.2-83.4C166.8,18.1,118.7-9.5,72.3,2.6C25.5,14.7-3.1,62.4,8.6,109C20,154.5,34.4,216.6,38.3,253.6
		c7.3,65.6,26.4,110.9,40.2,155.3c4.3,16.4,4.5,65,4.2,82.4c0,11.6,17.4,12.1,17.8,0.3"/>
	<path class="st2" d="M100.5,491.5c0-2.6,0.9-65-4.8-87.1c-1.4-5.6-4.2-13.5-7.6-23.6c-10-29.2-26.7-78.2-32.1-129.1
		c-4-38-18.6-101-30.2-147.1C7.3,14.8,134-18.7,162.4,68.7c0,0,23.4,84,23.4,84c0.3,1,34.3,97.3,41.6,128.4
		c8,34.6,15.2,87.8,29.9,113.9c13.2,23.6,21.7,58.7,21.8,59.1"/>
	<path class="st2" d="M112,152c27-7,42.8-36.1,35.4-64.9l-9.7-37.4c-2-7.7-8.9-13.1-16.8-13c-25.7,0.2-50.1,6.5-72.7,18.8
		c-6.9,3.8-10.4,11.8-8.4,19.5l9.7,37.4C57,141.3,85,159,112,152L112,152z"/>
	<path class="st1" d="M112,152c27-7,42.8-36.1,35.4-64.9l-9.7-37.4c-2-7.7-8.9-13.1-16.8-13c-25.7,0.2-50.1,6.5-72.7,18.8
		c-6.9,3.8-10.4,11.8-8.4,19.5l9.7,37.4C57,141.3,85,159,112,152L112,152z M88.4,58.6c10.5-2.7,21.2-4.2,32.1-4.4l9.7,37.4
		c10.6,46.7-50,62.4-63.4,16.4c0,0-10-36.9-10-36.9C66.9,65.6,77.5,61.4,88.4,58.6z"/>
	<path class="st1" d="M171.2,188.8c-30.3-1.7-61.4,6.3-92.7,23.9c-4.3,2.4-5.8,7.8-3.4,12.1c2.4,4.3,7.8,5.8,12.1,3.4
		c28.7-16.1,55.8-23.2,83-21.7C181.8,207,182.9,189.6,171.2,188.8L171.2,188.8z"/>
	<path class="st1" d="M177.6,235.1c-23,14.5-50.2,21.5-83.1,21.4c-11.7,0.1-11.8,17.6-0.1,17.8c33.6,0.1,65.2-6.9,92.6-24.2
		c4.2-2.6,5.4-8.1,2.8-12.3C187.2,233.7,181.7,232.4,177.6,235.1z"/>
	<path class="st1" d="M155.9,229.3c11.3-3.1,6.9-20-4.5-17.2c0,0-49.6,12.9-49.6,12.9c-11.3,3.1-6.9,20,4.5,17.2
		C106.3,242.2,155.9,229.3,155.9,229.3z"/>
	<text transform="matrix(0.968 -0.251 0.251 0.968 103.6782 473.3262)" class="st1 st3 st4">Created by sentya irma</text>
	<text transform="matrix(0.968 -0.251 0.251 0.968 106.8176 485.4336)" class="st1 st3 st4">from the Noun Project</text>
</g>
<g>
	<path class="st5" d="M102.3,499.6c0-2.6,0.9-65-4.8-87.1c-1.4-5.6-4.2-13.5-7.6-23.6c-10-29.2-26.7-78.2-32.1-129.1
		c-4-38-18.6-101-30.2-147.1C9,22.9,135.7-10.6,164.2,76.8c0,0,23.4,84,23.4,84c0.3,1,34.3,97.3,41.6,128.4
		c8,34.6,15.2,87.8,29.9,113.9c13.2,23.6,21.7,58.7,21.8,59.1"/>
	<g>
		<path class="st6" d="M102,152.3c-21,0-39.6-15.1-45.2-36.8l-8.9-34.4c-1.7-6.5,1.2-13.3,7.1-16.5c20.5-11.2,42.8-17,66.1-17.2
			c6.7,0,12.5,4.5,14.2,11l8.9,34.3c6.7,25.8-7.5,51.8-31.6,58.1C109.1,151.8,105.6,152.3,102,152.3C102,152.3,102,152.3,102,152.3z
			"/>
		<path d="M121.2,48.8c6,0,11.3,4.1,12.8,10l8.9,34.4c3.2,12.2,1.7,24.7-4.1,35.4c-5.8,10.6-15.2,18.1-26.5,21
			c-3.4,0.9-6.8,1.3-10.3,1.3c-9.7,0-19.4-3.5-27.3-9.8c-8.2-6.6-13.9-15.5-16.6-26l-8.9-34.4c-1.5-5.9,1.1-12.1,6.4-15
			C75.9,54.7,98,48.9,121.2,48.8L121.2,48.8 M121.2,46.2C121.2,46.2,121.1,46.2,121.2,46.2c-23.7,0.2-46.2,6-66.9,17.3
			c-6.4,3.5-9.5,10.9-7.7,18l8.9,34.4c5.9,22.6,25.4,37.8,46.4,37.8c3.6,0,7.3-0.5,11-1.4l0,0c24.8-6.4,39.4-33.2,32.5-59.7
			l-8.9-34.4C134.7,51.1,128.4,46.2,121.2,46.2L121.2,46.2z"/>
	</g>
	<path class="st7" d="M172.9,206.3L172.9,206.3c-30.3-1.7-61.4,6.3-92.7,23.9"/>
	<path class="st7" d="M96.2,282.4c33.6,0.1,65.2-6.9,92.6-24.2"/>
	<path class="st7" d="M108,255c0,0,49.6-12.9,49.6-12.9"/>
	<text transform="matrix(0.9781 -0.2079 0.2079 0.9781 109.0271 492.2066)" class="st8 st3 st9">Created by sentya irma from the Noun Project</text>
</g>
<rect x="1.6" y="0.8" class="st10" width="100" height="100"/>
<circle class="st11" cx="101.6" cy="100.8" r="2"/>
</svg>
